<mxfile host="app.diagrams.net" modified="2022-06-17T18:04:35.617Z" agent="5.0 (Windows NT 10.0; Win64; x64) AppleWebKit/537.36 (KHTML, like Gecko) Chrome/102.0.0.0 Safari/537.36" etag="yL5znKNi4NtjlUFYofWL" version="20.0.1" type="github">
  <diagram id="PDouPj2kM5bLhdBqerRg" name="Page-1">
    <mxGraphModel dx="2591" dy="762" grid="1" gridSize="10" guides="1" tooltips="1" connect="1" arrows="1" fold="1" page="1" pageScale="1" pageWidth="1169" pageHeight="827" math="1" shadow="0">
      <root>
        <mxCell id="0" />
        <mxCell id="1" parent="0" />
        <mxCell id="mMi7ERoI5mFDvk5F9cLi-6" value="ADC" style="rounded=1;html=1;fontSize=6;whiteSpace=wrap;" parent="1" vertex="1">
          <mxGeometry x="-1162.44" y="171.0012499999999" width="45.12" height="16.026999999999994" as="geometry" />
        </mxCell>
        <mxCell id="mMi7ERoI5mFDvk5F9cLi-7" value="Adaptación frecuencia muestreo" style="swimlane;fontSize=6;rounded=1;" parent="1" vertex="1">
          <mxGeometry x="-1110" y="60" width="250" height="110" as="geometry" />
        </mxCell>
        <mxCell id="mMi7ERoI5mFDvk5F9cLi-15" style="edgeStyle=orthogonalEdgeStyle;rounded=0;orthogonalLoop=1;jettySize=auto;html=1;fontSize=6;strokeWidth=1;" parent="mMi7ERoI5mFDvk5F9cLi-7" source="mMi7ERoI5mFDvk5F9cLi-8" target="mMi7ERoI5mFDvk5F9cLi-9" edge="1">
          <mxGeometry relative="1" as="geometry" />
        </mxCell>
        <mxCell id="mMi7ERoI5mFDvk5F9cLi-8" value="$$\uparrow 64$$" style="rounded=1;html=1;fontSize=6;whiteSpace=wrap;" parent="mMi7ERoI5mFDvk5F9cLi-7" vertex="1">
          <mxGeometry x="15.120000000000005" y="51.00124999999991" width="45.12" height="16.026999999999994" as="geometry" />
        </mxCell>
        <mxCell id="mMi7ERoI5mFDvk5F9cLi-10" value="$$\downarrow 70$$" style="rounded=1;html=1;fontSize=6;whiteSpace=wrap;" parent="mMi7ERoI5mFDvk5F9cLi-7" vertex="1">
          <mxGeometry x="150" y="51.00124999999992" width="45.12" height="16.026999999999994" as="geometry" />
        </mxCell>
        <mxCell id="mMi7ERoI5mFDvk5F9cLi-16" style="edgeStyle=orthogonalEdgeStyle;rounded=0;orthogonalLoop=1;jettySize=auto;html=1;entryX=0;entryY=0.5;entryDx=0;entryDy=0;fontSize=6;strokeWidth=1;" parent="mMi7ERoI5mFDvk5F9cLi-7" source="mMi7ERoI5mFDvk5F9cLi-9" target="mMi7ERoI5mFDvk5F9cLi-10" edge="1">
          <mxGeometry relative="1" as="geometry" />
        </mxCell>
        <mxCell id="mMi7ERoI5mFDvk5F9cLi-9" value="" style="rounded=1;html=1;fontSize=6;whiteSpace=wrap;" parent="mMi7ERoI5mFDvk5F9cLi-7" vertex="1">
          <mxGeometry x="77.44" y="51.00124999999991" width="45.12" height="16.026999999999994" as="geometry" />
        </mxCell>
        <mxCell id="mMi7ERoI5mFDvk5F9cLi-17" style="edgeStyle=orthogonalEdgeStyle;rounded=0;orthogonalLoop=1;jettySize=auto;html=1;exitX=0;exitY=0.5;exitDx=0;exitDy=0;entryX=0;entryY=0.5;entryDx=0;entryDy=0;fontSize=6;strokeWidth=1;" parent="mMi7ERoI5mFDvk5F9cLi-7" source="mMi7ERoI5mFDvk5F9cLi-7" target="mMi7ERoI5mFDvk5F9cLi-8" edge="1">
          <mxGeometry relative="1" as="geometry">
            <Array as="points">
              <mxPoint y="60" />
              <mxPoint x="15" y="60" />
            </Array>
          </mxGeometry>
        </mxCell>
        <mxCell id="mMi7ERoI5mFDvk5F9cLi-14" value="" style="shape=image;verticalLabelPosition=bottom;labelBackgroundColor=default;verticalAlign=top;aspect=fixed;imageAspect=0;image=https://www.simbologia-electronica.com/imagenes/simbolos-electronicos/filtros-electricos/pasa-baja_1.png;" parent="mMi7ERoI5mFDvk5F9cLi-7" vertex="1">
          <mxGeometry x="92.55999999999995" y="67.03" width="30" height="30" as="geometry" />
        </mxCell>
        <mxCell id="mMi7ERoI5mFDvk5F9cLi-85" style="edgeStyle=orthogonalEdgeStyle;rounded=0;orthogonalLoop=1;jettySize=auto;html=1;entryX=0;entryY=0.5;entryDx=0;entryDy=0;fontSize=5;strokeWidth=1;" parent="1" source="mMi7ERoI5mFDvk5F9cLi-18" target="mMi7ERoI5mFDvk5F9cLi-55" edge="1">
          <mxGeometry relative="1" as="geometry" />
        </mxCell>
        <mxCell id="mMi7ERoI5mFDvk5F9cLi-87" style="edgeStyle=orthogonalEdgeStyle;rounded=0;orthogonalLoop=1;jettySize=auto;html=1;fontSize=5;strokeWidth=1;" parent="1" source="mMi7ERoI5mFDvk5F9cLi-55" edge="1">
          <mxGeometry relative="1" as="geometry">
            <mxPoint x="-1110" y="400" as="targetPoint" />
            <Array as="points">
              <mxPoint x="-30" y="200" />
              <mxPoint x="-30" y="310" />
              <mxPoint x="-1120" y="310" />
              <mxPoint x="-1120" y="400" />
            </Array>
          </mxGeometry>
        </mxCell>
        <mxCell id="hJ_LIC6B6bMGmAfKbL3N-2" style="edgeStyle=orthogonalEdgeStyle;rounded=0;orthogonalLoop=1;jettySize=auto;html=1;exitX=1;exitY=0.25;exitDx=0;exitDy=0;" parent="1" source="mMi7ERoI5mFDvk5F9cLi-55" edge="1">
          <mxGeometry relative="1" as="geometry">
            <mxPoint x="-1110" y="480" as="targetPoint" />
            <Array as="points">
              <mxPoint x="-10" y="160" />
              <mxPoint x="-10" y="330" />
              <mxPoint x="-1150" y="330" />
              <mxPoint x="-1150" y="480" />
            </Array>
          </mxGeometry>
        </mxCell>
        <mxCell id="mMi7ERoI5mFDvk5F9cLi-55" value="Separación canales" style="swimlane;fontSize=6;rounded=1;" parent="1" vertex="1">
          <mxGeometry x="-390" y="120" width="350" height="160" as="geometry" />
        </mxCell>
        <mxCell id="mMi7ERoI5mFDvk5F9cLi-84" style="edgeStyle=orthogonalEdgeStyle;rounded=0;orthogonalLoop=1;jettySize=auto;html=1;fontSize=5;strokeWidth=1;" parent="mMi7ERoI5mFDvk5F9cLi-55" source="mMi7ERoI5mFDvk5F9cLi-62" target="mMi7ERoI5mFDvk5F9cLi-64" edge="1">
          <mxGeometry relative="1" as="geometry" />
        </mxCell>
        <mxCell id="mMi7ERoI5mFDvk5F9cLi-62" value="Ecualización" style="rounded=1;html=1;fontSize=6;whiteSpace=wrap;" parent="mMi7ERoI5mFDvk5F9cLi-55" vertex="1">
          <mxGeometry x="89.99999999999989" y="41.991249999999944" width="45.12" height="16.026999999999994" as="geometry" />
        </mxCell>
        <mxCell id="mMi7ERoI5mFDvk5F9cLi-67" style="edgeStyle=orthogonalEdgeStyle;rounded=0;orthogonalLoop=1;jettySize=auto;html=1;entryX=0;entryY=0.5;entryDx=0;entryDy=0;fontSize=6;strokeWidth=1;" parent="mMi7ERoI5mFDvk5F9cLi-55" source="mMi7ERoI5mFDvk5F9cLi-63" target="mMi7ERoI5mFDvk5F9cLi-62" edge="1">
          <mxGeometry relative="1" as="geometry">
            <Array as="points">
              <mxPoint x="80" y="78" />
            </Array>
          </mxGeometry>
        </mxCell>
        <mxCell id="mMi7ERoI5mFDvk5F9cLi-63" value="Estimación de canal" style="rounded=1;html=1;fontSize=6;whiteSpace=wrap;" parent="mMi7ERoI5mFDvk5F9cLi-55" vertex="1">
          <mxGeometry x="29.99999999999989" y="70.00124999999994" width="45.12" height="16.026999999999994" as="geometry" />
        </mxCell>
        <mxCell id="mMi7ERoI5mFDvk5F9cLi-72" style="edgeStyle=orthogonalEdgeStyle;rounded=0;orthogonalLoop=1;jettySize=auto;html=1;exitX=1;exitY=0.25;exitDx=0;exitDy=0;entryX=0;entryY=0.5;entryDx=0;entryDy=0;fontSize=5;strokeWidth=1;" parent="mMi7ERoI5mFDvk5F9cLi-55" source="mMi7ERoI5mFDvk5F9cLi-64" target="mMi7ERoI5mFDvk5F9cLi-66" edge="1">
          <mxGeometry relative="1" as="geometry">
            <Array as="points">
              <mxPoint x="198" y="50" />
              <mxPoint x="250" y="50" />
            </Array>
          </mxGeometry>
        </mxCell>
        <mxCell id="mMi7ERoI5mFDvk5F9cLi-74" style="edgeStyle=orthogonalEdgeStyle;rounded=0;orthogonalLoop=1;jettySize=auto;html=1;entryX=0.5;entryY=0;entryDx=0;entryDy=0;fontSize=5;strokeWidth=1;" parent="mMi7ERoI5mFDvk5F9cLi-55" source="mMi7ERoI5mFDvk5F9cLi-64" target="mMi7ERoI5mFDvk5F9cLi-73" edge="1">
          <mxGeometry relative="1" as="geometry">
            <Array as="points">
              <mxPoint x="230" y="50" />
            </Array>
          </mxGeometry>
        </mxCell>
        <mxCell id="mMi7ERoI5mFDvk5F9cLi-64" value="Demodulador QAM" style="rounded=1;html=1;fontSize=6;whiteSpace=wrap;" parent="mMi7ERoI5mFDvk5F9cLi-55" vertex="1">
          <mxGeometry x="152.43999999999988" y="41.99124999999995" width="45.12" height="16.026999999999994" as="geometry" />
        </mxCell>
        <mxCell id="mMi7ERoI5mFDvk5F9cLi-65" value="&lt;font style=&quot;font-size: 5px;&quot;&gt;IFFT e inserción prefijo cíclico&lt;/font&gt;" style="rounded=1;html=1;fontSize=6;whiteSpace=wrap;" parent="mMi7ERoI5mFDvk5F9cLi-55" vertex="1">
          <mxGeometry x="259.9999999999999" y="102.06124999999992" width="45.12" height="16.026999999999994" as="geometry" />
        </mxCell>
        <mxCell id="mMi7ERoI5mFDvk5F9cLi-66" value="&lt;font style=&quot;font-size: 5px;&quot;&gt;IFFT e inserción prefijo cíclico&lt;/font&gt;" style="rounded=1;html=1;fontSize=6;whiteSpace=wrap;" parent="mMi7ERoI5mFDvk5F9cLi-55" vertex="1">
          <mxGeometry x="259.9999999999999" y="41.991249999999916" width="45.12" height="16.026999999999994" as="geometry" />
        </mxCell>
        <mxCell id="mMi7ERoI5mFDvk5F9cLi-73" value="" style="shape=sumEllipse;perimeter=ellipsePerimeter;html=1;backgroundOutline=1;rounded=1;shadow=0;glass=0;fontSize=6;whiteSpace=wrap;" parent="mMi7ERoI5mFDvk5F9cLi-55" vertex="1">
          <mxGeometry x="220" y="66.03" width="20" height="20" as="geometry" />
        </mxCell>
        <mxCell id="mMi7ERoI5mFDvk5F9cLi-77" style="edgeStyle=orthogonalEdgeStyle;rounded=0;orthogonalLoop=1;jettySize=auto;html=1;entryX=0;entryY=0.5;entryDx=0;entryDy=0;fontSize=5;strokeWidth=1;" parent="mMi7ERoI5mFDvk5F9cLi-55" source="mMi7ERoI5mFDvk5F9cLi-75" target="mMi7ERoI5mFDvk5F9cLi-65" edge="1">
          <mxGeometry relative="1" as="geometry">
            <Array as="points">
              <mxPoint x="250" y="128" />
              <mxPoint x="250" y="110" />
            </Array>
          </mxGeometry>
        </mxCell>
        <mxCell id="mMi7ERoI5mFDvk5F9cLi-75" value="" style="shape=orEllipse;perimeter=ellipsePerimeter;html=1;backgroundOutline=1;rounded=1;shadow=0;glass=0;fontSize=6;whiteSpace=wrap;" parent="mMi7ERoI5mFDvk5F9cLi-55" vertex="1">
          <mxGeometry x="220" y="118.09" width="20" height="20" as="geometry" />
        </mxCell>
        <mxCell id="mMi7ERoI5mFDvk5F9cLi-79" style="edgeStyle=orthogonalEdgeStyle;rounded=0;orthogonalLoop=1;jettySize=auto;html=1;exitX=0;exitY=0.25;exitDx=0;exitDy=0;entryX=0;entryY=0.5;entryDx=0;entryDy=0;fontSize=5;strokeWidth=1;" parent="mMi7ERoI5mFDvk5F9cLi-55" source="mMi7ERoI5mFDvk5F9cLi-55" target="mMi7ERoI5mFDvk5F9cLi-62" edge="1">
          <mxGeometry relative="1" as="geometry">
            <Array as="points">
              <mxPoint y="50" />
            </Array>
          </mxGeometry>
        </mxCell>
        <mxCell id="mMi7ERoI5mFDvk5F9cLi-80" style="edgeStyle=orthogonalEdgeStyle;rounded=0;orthogonalLoop=1;jettySize=auto;html=1;entryX=0;entryY=0.5;entryDx=0;entryDy=0;fontSize=5;strokeWidth=1;" parent="mMi7ERoI5mFDvk5F9cLi-55" target="mMi7ERoI5mFDvk5F9cLi-63" edge="1">
          <mxGeometry relative="1" as="geometry">
            <mxPoint y="50" as="sourcePoint" />
            <Array as="points">
              <mxPoint x="20" y="50" />
              <mxPoint x="20" y="78" />
            </Array>
          </mxGeometry>
        </mxCell>
        <mxCell id="mMi7ERoI5mFDvk5F9cLi-81" style="edgeStyle=orthogonalEdgeStyle;rounded=0;orthogonalLoop=1;jettySize=auto;html=1;entryX=0;entryY=0.5;entryDx=0;entryDy=0;fontSize=5;strokeWidth=1;" parent="mMi7ERoI5mFDvk5F9cLi-55" target="mMi7ERoI5mFDvk5F9cLi-75" edge="1">
          <mxGeometry relative="1" as="geometry">
            <mxPoint y="50" as="sourcePoint" />
            <Array as="points">
              <mxPoint x="20" y="50" />
              <mxPoint x="20" y="128" />
            </Array>
          </mxGeometry>
        </mxCell>
        <mxCell id="mMi7ERoI5mFDvk5F9cLi-83" value="+" style="edgeLabel;html=1;align=center;verticalAlign=middle;resizable=0;points=[];fontSize=5;" parent="mMi7ERoI5mFDvk5F9cLi-81" vertex="1" connectable="0">
          <mxGeometry x="0.8297" y="1" relative="1" as="geometry">
            <mxPoint x="10" y="4" as="offset" />
          </mxGeometry>
        </mxCell>
        <mxCell id="mMi7ERoI5mFDvk5F9cLi-78" style="edgeStyle=orthogonalEdgeStyle;rounded=0;orthogonalLoop=1;jettySize=auto;html=1;fontSize=5;strokeWidth=1;entryX=0.481;entryY=-0.077;entryDx=0;entryDy=0;entryPerimeter=0;" parent="mMi7ERoI5mFDvk5F9cLi-55" source="mMi7ERoI5mFDvk5F9cLi-73" target="mMi7ERoI5mFDvk5F9cLi-75" edge="1">
          <mxGeometry relative="1" as="geometry">
            <mxPoint x="230" y="110" as="targetPoint" />
          </mxGeometry>
        </mxCell>
        <mxCell id="mMi7ERoI5mFDvk5F9cLi-82" value="-" style="edgeLabel;html=1;align=center;verticalAlign=middle;resizable=0;points=[];fontSize=5;" parent="mMi7ERoI5mFDvk5F9cLi-78" vertex="1" connectable="0">
          <mxGeometry x="-0.1032" y="1" relative="1" as="geometry">
            <mxPoint x="2" y="3" as="offset" />
          </mxGeometry>
        </mxCell>
        <mxCell id="mMi7ERoI5mFDvk5F9cLi-70" style="edgeStyle=orthogonalEdgeStyle;rounded=0;orthogonalLoop=1;jettySize=auto;html=1;fontSize=5;strokeWidth=1;" parent="1" source="mMi7ERoI5mFDvk5F9cLi-66" edge="1">
          <mxGeometry relative="1" as="geometry">
            <mxPoint x="-60" y="170" as="targetPoint" />
            <Array as="points">
              <mxPoint x="-60" y="170" />
            </Array>
          </mxGeometry>
        </mxCell>
        <mxCell id="mMi7ERoI5mFDvk5F9cLi-76" style="edgeStyle=orthogonalEdgeStyle;rounded=0;orthogonalLoop=1;jettySize=auto;html=1;fontSize=5;strokeWidth=1;" parent="1" source="mMi7ERoI5mFDvk5F9cLi-65" edge="1">
          <mxGeometry relative="1" as="geometry">
            <mxPoint x="-59.99999999999977" y="200.00000000000023" as="targetPoint" />
            <Array as="points">
              <mxPoint x="-80" y="230" />
              <mxPoint x="-80" y="200" />
            </Array>
          </mxGeometry>
        </mxCell>
        <mxCell id="mMi7ERoI5mFDvk5F9cLi-91" value="Sistema detección" style="swimlane;fontSize=6;rounded=1;" parent="1" vertex="1">
          <mxGeometry x="-264" y="460" width="204" height="100" as="geometry" />
        </mxCell>
        <mxCell id="mMi7ERoI5mFDvk5F9cLi-94" value="Sistema tracking" style="rounded=1;html=1;fontSize=6;whiteSpace=wrap;" parent="mMi7ERoI5mFDvk5F9cLi-91" vertex="1">
          <mxGeometry x="154.88" y="51.00124999999992" width="45.12" height="16.026999999999994" as="geometry" />
        </mxCell>
        <mxCell id="mMi7ERoI5mFDvk5F9cLi-95" style="edgeStyle=orthogonalEdgeStyle;rounded=0;orthogonalLoop=1;jettySize=auto;html=1;entryX=0;entryY=0.5;entryDx=0;entryDy=0;fontSize=6;strokeWidth=1;" parent="mMi7ERoI5mFDvk5F9cLi-91" source="mMi7ERoI5mFDvk5F9cLi-96" target="mMi7ERoI5mFDvk5F9cLi-94" edge="1">
          <mxGeometry relative="1" as="geometry" />
        </mxCell>
        <mxCell id="mMi7ERoI5mFDvk5F9cLi-96" value="Sistema detección" style="rounded=1;html=1;fontSize=6;whiteSpace=wrap;" parent="mMi7ERoI5mFDvk5F9cLi-91" vertex="1">
          <mxGeometry x="84" y="51.00124999999991" width="45.12" height="16.026999999999994" as="geometry" />
        </mxCell>
        <mxCell id="hJ_LIC6B6bMGmAfKbL3N-7" style="edgeStyle=orthogonalEdgeStyle;rounded=0;orthogonalLoop=1;jettySize=auto;html=1;entryX=0;entryY=0.5;entryDx=0;entryDy=0;endArrow=classic;endFill=1;sourcePerimeterSpacing=2;targetPerimeterSpacing=9;" parent="mMi7ERoI5mFDvk5F9cLi-91" source="hJ_LIC6B6bMGmAfKbL3N-6" target="mMi7ERoI5mFDvk5F9cLi-96" edge="1">
          <mxGeometry relative="1" as="geometry" />
        </mxCell>
        <mxCell id="hJ_LIC6B6bMGmAfKbL3N-6" value="CFAR" style="rounded=1;html=1;fontSize=6;whiteSpace=wrap;" parent="mMi7ERoI5mFDvk5F9cLi-91" vertex="1">
          <mxGeometry x="14" y="51.001249999999914" width="45.12" height="16.026999999999994" as="geometry" />
        </mxCell>
        <mxCell id="hJ_LIC6B6bMGmAfKbL3N-1" style="edgeStyle=orthogonalEdgeStyle;rounded=0;orthogonalLoop=1;jettySize=auto;html=1;entryX=0;entryY=0.5;entryDx=0;entryDy=0;" parent="1" source="5luADB34g27wOjglePZU-57" target="mMi7ERoI5mFDvk5F9cLi-91" edge="1">
          <mxGeometry relative="1" as="geometry" />
        </mxCell>
        <mxCell id="0ZpZoxerwZfCrGspUUli-3" value="$$f_s = 10MHz$$" style="text;html=1;align=center;verticalAlign=middle;resizable=0;points=[];autosize=1;strokeColor=none;fillColor=none;" parent="1" vertex="1">
          <mxGeometry x="-1150" y="250" width="110" height="20" as="geometry" />
        </mxCell>
        <mxCell id="5luADB34g27wOjglePZU-57" value="Algoritmo Batch" style="swimlane;rounded=1;shadow=0;glass=0;whiteSpace=wrap;fontSize=6;" parent="1" vertex="1">
          <mxGeometry x="-880" y="500" width="470" height="189.40999999999994" as="geometry" />
        </mxCell>
        <mxCell id="5luADB34g27wOjglePZU-75" style="edgeStyle=orthogonalEdgeStyle;rounded=0;orthogonalLoop=1;jettySize=auto;html=1;exitX=1;exitY=0.5;exitDx=0;exitDy=0;entryX=0;entryY=0.5;entryDx=0;entryDy=0;fontSize=6;" parent="5luADB34g27wOjglePZU-57" source="5luADB34g27wOjglePZU-64" target="5luADB34g27wOjglePZU-69" edge="1">
          <mxGeometry relative="1" as="geometry">
            <Array as="points">
              <mxPoint x="120" y="37" />
              <mxPoint x="120" y="84" />
            </Array>
          </mxGeometry>
        </mxCell>
        <mxCell id="5luADB34g27wOjglePZU-76" style="edgeStyle=orthogonalEdgeStyle;rounded=0;orthogonalLoop=1;jettySize=auto;html=1;exitX=1;exitY=0.5;exitDx=0;exitDy=0;entryX=0;entryY=0.5;entryDx=0;entryDy=0;fontSize=6;" parent="5luADB34g27wOjglePZU-57" source="5luADB34g27wOjglePZU-64" target="5luADB34g27wOjglePZU-70" edge="1">
          <mxGeometry relative="1" as="geometry">
            <Array as="points">
              <mxPoint x="120" y="37" />
              <mxPoint x="120" y="110" />
            </Array>
          </mxGeometry>
        </mxCell>
        <mxCell id="5luADB34g27wOjglePZU-77" style="edgeStyle=orthogonalEdgeStyle;rounded=0;orthogonalLoop=1;jettySize=auto;html=1;exitX=1;exitY=0.5;exitDx=0;exitDy=0;entryX=0;entryY=0.5;entryDx=0;entryDy=0;fontSize=6;endArrow=classic;endFill=1;" parent="5luADB34g27wOjglePZU-57" source="5luADB34g27wOjglePZU-64" target="5luADB34g27wOjglePZU-71" edge="1">
          <mxGeometry relative="1" as="geometry">
            <Array as="points">
              <mxPoint x="120" y="37" />
              <mxPoint x="120" y="136" />
            </Array>
          </mxGeometry>
        </mxCell>
        <mxCell id="5luADB34g27wOjglePZU-78" style="edgeStyle=orthogonalEdgeStyle;rounded=0;orthogonalLoop=1;jettySize=auto;html=1;exitX=1;exitY=0.5;exitDx=0;exitDy=0;entryX=0;entryY=0.5;entryDx=0;entryDy=0;fontSize=6;" parent="5luADB34g27wOjglePZU-57" source="5luADB34g27wOjglePZU-64" target="5luADB34g27wOjglePZU-72" edge="1">
          <mxGeometry relative="1" as="geometry">
            <Array as="points">
              <mxPoint x="120" y="37" />
              <mxPoint x="120" y="171" />
            </Array>
          </mxGeometry>
        </mxCell>
        <mxCell id="5luADB34g27wOjglePZU-80" style="edgeStyle=orthogonalEdgeStyle;orthogonalLoop=1;jettySize=auto;html=1;exitX=0.5;exitY=1;exitDx=0;exitDy=0;entryX=0;entryY=0.75;entryDx=0;entryDy=0;rounded=0;dashed=1;fontSize=6;endArrow=none;endFill=0;" parent="5luADB34g27wOjglePZU-57" source="5luADB34g27wOjglePZU-64" target="5luADB34g27wOjglePZU-69" edge="1">
          <mxGeometry relative="1" as="geometry" />
        </mxCell>
        <mxCell id="5luADB34g27wOjglePZU-82" style="edgeStyle=orthogonalEdgeStyle;rounded=0;orthogonalLoop=1;jettySize=auto;html=1;exitX=0.5;exitY=1;exitDx=0;exitDy=0;entryX=0;entryY=0.75;entryDx=0;entryDy=0;dashed=1;fontSize=6;endArrow=classic;endFill=1;" parent="5luADB34g27wOjglePZU-57" source="5luADB34g27wOjglePZU-64" target="5luADB34g27wOjglePZU-68" edge="1">
          <mxGeometry relative="1" as="geometry" />
        </mxCell>
        <mxCell id="5luADB34g27wOjglePZU-83" style="edgeStyle=orthogonalEdgeStyle;rounded=0;orthogonalLoop=1;jettySize=auto;html=1;exitX=0.5;exitY=1;exitDx=0;exitDy=0;entryX=0;entryY=0.75;entryDx=0;entryDy=0;dashed=1;fontSize=6;endArrow=none;endFill=0;" parent="5luADB34g27wOjglePZU-57" source="5luADB34g27wOjglePZU-64" target="5luADB34g27wOjglePZU-70" edge="1">
          <mxGeometry relative="1" as="geometry" />
        </mxCell>
        <mxCell id="5luADB34g27wOjglePZU-84" style="edgeStyle=orthogonalEdgeStyle;rounded=0;orthogonalLoop=1;jettySize=auto;html=1;entryX=0;entryY=0.75;entryDx=0;entryDy=0;dashed=1;fontSize=6;endArrow=none;endFill=0;" parent="5luADB34g27wOjglePZU-57" source="5luADB34g27wOjglePZU-64" target="5luADB34g27wOjglePZU-71" edge="1">
          <mxGeometry relative="1" as="geometry">
            <Array as="points">
              <mxPoint x="94" y="140" />
              <mxPoint x="139" y="140" />
            </Array>
          </mxGeometry>
        </mxCell>
        <mxCell id="5luADB34g27wOjglePZU-85" style="edgeStyle=orthogonalEdgeStyle;rounded=0;orthogonalLoop=1;jettySize=auto;html=1;exitX=0.5;exitY=1;exitDx=0;exitDy=0;entryX=0;entryY=0.75;entryDx=0;entryDy=0;dashed=1;fontSize=6;endArrow=none;endFill=0;" parent="5luADB34g27wOjglePZU-57" source="5luADB34g27wOjglePZU-64" target="5luADB34g27wOjglePZU-72" edge="1">
          <mxGeometry relative="1" as="geometry" />
        </mxCell>
        <mxCell id="hJ_LIC6B6bMGmAfKbL3N-11" style="edgeStyle=orthogonalEdgeStyle;rounded=0;orthogonalLoop=1;jettySize=auto;html=1;exitX=1;exitY=0.25;exitDx=0;exitDy=0;entryX=0;entryY=0.5;entryDx=0;entryDy=0;startArrow=none;startFill=0;endArrow=classic;endFill=1;sourcePerimeterSpacing=2;targetPerimeterSpacing=9;" parent="5luADB34g27wOjglePZU-57" source="5luADB34g27wOjglePZU-64" target="5luADB34g27wOjglePZU-68" edge="1">
          <mxGeometry relative="1" as="geometry">
            <Array as="points">
              <mxPoint x="117" y="37" />
              <mxPoint x="120" y="37" />
              <mxPoint x="120" y="60" />
            </Array>
          </mxGeometry>
        </mxCell>
        <mxCell id="5luADB34g27wOjglePZU-64" value="&lt;font style=&quot;font-size: 6px;&quot;&gt;Segmentación de la señal&lt;/font&gt;" style="rounded=1;html=1;fontSize=6;whiteSpace=wrap;" parent="5luADB34g27wOjglePZU-57" vertex="1">
          <mxGeometry x="71.44" y="29.382833333333327" width="45.12" height="16.026999999999994" as="geometry" />
        </mxCell>
        <mxCell id="5luADB34g27wOjglePZU-89" style="edgeStyle=orthogonalEdgeStyle;rounded=0;orthogonalLoop=1;jettySize=auto;html=1;exitX=1;exitY=0.5;exitDx=0;exitDy=0;entryX=0;entryY=0.063;entryDx=0;entryDy=0;entryPerimeter=0;fontSize=6;" parent="5luADB34g27wOjglePZU-57" source="5luADB34g27wOjglePZU-68" target="5luADB34g27wOjglePZU-86" edge="1">
          <mxGeometry relative="1" as="geometry" />
        </mxCell>
        <mxCell id="5luADB34g27wOjglePZU-68" value="Correlación cruzada 0" style="rounded=1;html=1;fontSize=6;whiteSpace=wrap;" parent="5luADB34g27wOjglePZU-57" vertex="1">
          <mxGeometry x="139.12" y="52.087749999999986" width="45.12" height="16.026999999999994" as="geometry" />
        </mxCell>
        <mxCell id="5luADB34g27wOjglePZU-69" value="Correlación cruzada 1" style="rounded=1;html=1;fontSize=6;whiteSpace=wrap;" parent="5luADB34g27wOjglePZU-57" vertex="1">
          <mxGeometry x="139.12" y="76.12824999999998" width="45.12" height="16.026999999999994" as="geometry" />
        </mxCell>
        <mxCell id="5luADB34g27wOjglePZU-91" style="edgeStyle=orthogonalEdgeStyle;rounded=0;orthogonalLoop=1;jettySize=auto;html=1;exitX=1;exitY=0.5;exitDx=0;exitDy=0;entryX=0;entryY=0.458;entryDx=0;entryDy=0;entryPerimeter=0;fontSize=6;" parent="5luADB34g27wOjglePZU-57" source="5luADB34g27wOjglePZU-70" target="5luADB34g27wOjglePZU-86" edge="1">
          <mxGeometry relative="1" as="geometry" />
        </mxCell>
        <mxCell id="5luADB34g27wOjglePZU-70" value="Correlación cruzada 2" style="rounded=1;html=1;fontSize=6;whiteSpace=wrap;" parent="5luADB34g27wOjglePZU-57" vertex="1">
          <mxGeometry x="139.12" y="101.5043333333333" width="45.12" height="16.026999999999994" as="geometry" />
        </mxCell>
        <mxCell id="5luADB34g27wOjglePZU-92" style="edgeStyle=orthogonalEdgeStyle;rounded=0;orthogonalLoop=1;jettySize=auto;html=1;entryX=0.007;entryY=0.674;entryDx=0;entryDy=0;entryPerimeter=0;fontSize=6;" parent="5luADB34g27wOjglePZU-57" source="5luADB34g27wOjglePZU-71" target="5luADB34g27wOjglePZU-86" edge="1">
          <mxGeometry relative="1" as="geometry" />
        </mxCell>
        <mxCell id="5luADB34g27wOjglePZU-71" value="Correlación cruzada 3" style="rounded=1;html=1;fontSize=6;whiteSpace=wrap;" parent="5luADB34g27wOjglePZU-57" vertex="1">
          <mxGeometry x="139.12" y="128.21599999999995" width="45.12" height="16.026999999999994" as="geometry" />
        </mxCell>
        <mxCell id="5luADB34g27wOjglePZU-93" style="edgeStyle=orthogonalEdgeStyle;rounded=0;orthogonalLoop=1;jettySize=auto;html=1;entryX=-0.023;entryY=0.946;entryDx=0;entryDy=0;entryPerimeter=0;fontSize=6;" parent="5luADB34g27wOjglePZU-57" source="5luADB34g27wOjglePZU-72" target="5luADB34g27wOjglePZU-86" edge="1">
          <mxGeometry relative="1" as="geometry" />
        </mxCell>
        <mxCell id="5luADB34g27wOjglePZU-72" value="Correlación cruzada N-1" style="rounded=1;html=1;whiteSpace=wrap;fontSize=6;" parent="5luADB34g27wOjglePZU-57" vertex="1">
          <mxGeometry x="139.12" y="162.94116666666662" width="45.12" height="16.026999999999994" as="geometry" />
        </mxCell>
        <mxCell id="5luADB34g27wOjglePZU-102" style="edgeStyle=orthogonalEdgeStyle;rounded=0;orthogonalLoop=1;jettySize=auto;html=1;entryX=0.004;entryY=0.065;entryDx=0;entryDy=0;entryPerimeter=0;exitX=0.997;exitY=0.065;exitDx=0;exitDy=0;exitPerimeter=0;fontSize=6;" parent="5luADB34g27wOjglePZU-57" source="5luADB34g27wOjglePZU-86" target="5luADB34g27wOjglePZU-99" edge="1">
          <mxGeometry relative="1" as="geometry" />
        </mxCell>
        <mxCell id="5luADB34g27wOjglePZU-103" style="edgeStyle=orthogonalEdgeStyle;rounded=0;orthogonalLoop=1;jettySize=auto;html=1;exitX=1;exitY=0.25;exitDx=0;exitDy=0;entryX=0;entryY=0.25;entryDx=0;entryDy=0;fontSize=6;" parent="5luADB34g27wOjglePZU-57" source="5luADB34g27wOjglePZU-86" target="5luADB34g27wOjglePZU-99" edge="1">
          <mxGeometry relative="1" as="geometry" />
        </mxCell>
        <mxCell id="5luADB34g27wOjglePZU-104" style="edgeStyle=orthogonalEdgeStyle;rounded=0;orthogonalLoop=1;jettySize=auto;html=1;exitX=0.997;exitY=0.459;exitDx=0;exitDy=0;exitPerimeter=0;entryX=-0.004;entryY=0.459;entryDx=0;entryDy=0;entryPerimeter=0;fontSize=6;" parent="5luADB34g27wOjglePZU-57" source="5luADB34g27wOjglePZU-86" target="5luADB34g27wOjglePZU-99" edge="1">
          <mxGeometry relative="1" as="geometry" />
        </mxCell>
        <mxCell id="5luADB34g27wOjglePZU-105" style="edgeStyle=orthogonalEdgeStyle;rounded=0;orthogonalLoop=1;jettySize=auto;html=1;exitX=1.013;exitY=0.678;exitDx=0;exitDy=0;exitPerimeter=0;entryX=0;entryY=0.678;entryDx=0;entryDy=0;entryPerimeter=0;fontSize=6;" parent="5luADB34g27wOjglePZU-57" source="5luADB34g27wOjglePZU-86" target="5luADB34g27wOjglePZU-99" edge="1">
          <mxGeometry relative="1" as="geometry">
            <mxPoint x="304.56" y="137.5650833333333" as="targetPoint" />
          </mxGeometry>
        </mxCell>
        <mxCell id="5luADB34g27wOjglePZU-86" value="" style="rounded=1;html=1;shadow=0;glass=0;fontSize=6;whiteSpace=wrap;" parent="5luADB34g27wOjglePZU-57" vertex="1">
          <mxGeometry x="203.04" y="52.087749999999986" width="67.68" height="125.54483333333329" as="geometry" />
        </mxCell>
        <mxCell id="5luADB34g27wOjglePZU-99" value="" style="rounded=0;html=1;shadow=0;glass=0;labelBackgroundColor=default;endArrow=none;fontSize=6;whiteSpace=wrap;" parent="5luADB34g27wOjglePZU-57" vertex="1">
          <mxGeometry x="304.56" y="52.087749999999986" width="131.6" height="125.54483333333329" as="geometry" />
        </mxCell>
        <mxCell id="5luADB34g27wOjglePZU-100" value="Frecuencia" style="text;html=1;align=center;verticalAlign=middle;resizable=0;points=[];autosize=1;strokeColor=none;fillColor=none;fontSize=6;" parent="5luADB34g27wOjglePZU-57" vertex="1">
          <mxGeometry x="340.0037037037037" y="42.09241666666665" width="50" height="10" as="geometry" />
        </mxCell>
        <mxCell id="5luADB34g27wOjglePZU-106" style="edgeStyle=orthogonalEdgeStyle;rounded=0;orthogonalLoop=1;jettySize=auto;html=1;exitX=1.003;exitY=0.943;exitDx=0;exitDy=0;exitPerimeter=0;fontSize=6;" parent="5luADB34g27wOjglePZU-57" source="5luADB34g27wOjglePZU-86" edge="1">
          <mxGeometry relative="1" as="geometry">
            <mxPoint x="304.56" y="170.42043333333328" as="targetPoint" />
          </mxGeometry>
        </mxCell>
        <mxCell id="5luADB34g27wOjglePZU-107" value="" style="endArrow=none;html=1;rounded=0;fontSize=6;" parent="5luADB34g27wOjglePZU-57" edge="1">
          <mxGeometry width="50" height="50" relative="1" as="geometry">
            <mxPoint x="304.56" y="74.52554999999997" as="sourcePoint" />
            <mxPoint x="436.15999999999997" y="74.52554999999997" as="targetPoint" />
          </mxGeometry>
        </mxCell>
        <mxCell id="5luADB34g27wOjglePZU-108" value="" style="endArrow=none;html=1;rounded=0;fontSize=6;" parent="5luADB34g27wOjglePZU-57" edge="1">
          <mxGeometry width="50" height="50" relative="1" as="geometry">
            <mxPoint x="304.56" y="100.16874999999996" as="sourcePoint" />
            <mxPoint x="436.15999999999997" y="100.16874999999996" as="targetPoint" />
          </mxGeometry>
        </mxCell>
        <mxCell id="5luADB34g27wOjglePZU-109" value="" style="endArrow=none;html=1;rounded=0;fontSize=6;" parent="5luADB34g27wOjglePZU-57" edge="1">
          <mxGeometry width="50" height="50" relative="1" as="geometry">
            <mxPoint x="304.56" y="124.20924999999994" as="sourcePoint" />
            <mxPoint x="436.15999999999997" y="124.20924999999994" as="targetPoint" />
          </mxGeometry>
        </mxCell>
        <mxCell id="5luADB34g27wOjglePZU-110" value="" style="endArrow=none;html=1;rounded=0;fontSize=6;" parent="5luADB34g27wOjglePZU-57" edge="1">
          <mxGeometry width="50" height="50" relative="1" as="geometry">
            <mxPoint x="304.56" y="153.59208333333328" as="sourcePoint" />
            <mxPoint x="436.15999999999997" y="153.59208333333328" as="targetPoint" />
          </mxGeometry>
        </mxCell>
        <mxCell id="iroz2q5MWz0Eh91kU0fL-9" value="&lt;b style=&quot;font-size: 6px;&quot;&gt;.&lt;br style=&quot;font-size: 6px;&quot;&gt;.&lt;br style=&quot;font-size: 6px;&quot;&gt;.&lt;br style=&quot;font-size: 6px;&quot;&gt;&lt;/b&gt;" style="text;html=1;align=center;verticalAlign=middle;resizable=0;points=[];autosize=1;strokeColor=none;fillColor=none;fontSize=6;" parent="5luADB34g27wOjglePZU-57" vertex="1">
          <mxGeometry x="278.24" y="160.51283333333328" width="20" height="30" as="geometry" />
        </mxCell>
        <mxCell id="82p_zA2Nt_jTjOzAJqe6-49" style="edgeStyle=orthogonalEdgeStyle;rounded=0;orthogonalLoop=1;jettySize=auto;html=1;entryX=0;entryY=0.5;entryDx=0;entryDy=0;fontSize=6;endArrow=none;endFill=0;" parent="5luADB34g27wOjglePZU-57" target="5luADB34g27wOjglePZU-64" edge="1">
          <mxGeometry relative="1" as="geometry">
            <mxPoint x="56.40000000000009" y="37.39999999999998" as="sourcePoint" />
          </mxGeometry>
        </mxCell>
        <mxCell id="82p_zA2Nt_jTjOzAJqe6-50" style="edgeStyle=orthogonalEdgeStyle;rounded=0;orthogonalLoop=1;jettySize=auto;html=1;entryX=0;entryY=0.5;entryDx=0;entryDy=0;fontSize=6;endArrow=none;endFill=0;" parent="5luADB34g27wOjglePZU-57" edge="1">
          <mxGeometry relative="1" as="geometry">
            <Array as="points">
              <mxPoint y="37.39633333333332" />
            </Array>
            <mxPoint y="30" as="sourcePoint" />
            <mxPoint x="11.279999999999973" y="37.39633333333336" as="targetPoint" />
          </mxGeometry>
        </mxCell>
        <mxCell id="kG4oIcdYXYJkIlnAyr43-4" style="edgeStyle=orthogonalEdgeStyle;rounded=0;orthogonalLoop=1;jettySize=auto;html=1;exitX=0.25;exitY=0;exitDx=0;exitDy=0;entryX=0.25;entryY=1;entryDx=0;entryDy=0;strokeColor=default;endArrow=none;fontSize=6;" parent="5luADB34g27wOjglePZU-57" source="5luADB34g27wOjglePZU-99" target="5luADB34g27wOjglePZU-99" edge="1">
          <mxGeometry relative="1" as="geometry">
            <Array as="points">
              <mxPoint x="337.64799999999997" y="122.87366666666664" />
              <mxPoint x="337.64799999999997" y="122.87366666666664" />
            </Array>
          </mxGeometry>
        </mxCell>
        <mxCell id="kG4oIcdYXYJkIlnAyr43-7" style="edgeStyle=orthogonalEdgeStyle;rounded=0;orthogonalLoop=1;jettySize=auto;html=1;exitX=0.5;exitY=0;exitDx=0;exitDy=0;entryX=0.5;entryY=1;entryDx=0;entryDy=0;strokeColor=default;endArrow=none;fontSize=6;" parent="5luADB34g27wOjglePZU-57" source="5luADB34g27wOjglePZU-99" target="5luADB34g27wOjglePZU-99" edge="1">
          <mxGeometry relative="1" as="geometry">
            <mxPoint x="341.22" y="54.75891666666665" as="sourcePoint" />
            <mxPoint x="341.22" y="180.30375000000006" as="targetPoint" />
            <Array as="points">
              <mxPoint x="370.35999999999996" y="149.58533333333327" />
              <mxPoint x="370.35999999999996" y="149.58533333333327" />
            </Array>
          </mxGeometry>
        </mxCell>
        <mxCell id="kG4oIcdYXYJkIlnAyr43-8" style="edgeStyle=orthogonalEdgeStyle;rounded=0;orthogonalLoop=1;jettySize=auto;html=1;exitX=0.75;exitY=0;exitDx=0;exitDy=0;entryX=0.75;entryY=1;entryDx=0;entryDy=0;strokeColor=default;endArrow=none;fontSize=6;" parent="5luADB34g27wOjglePZU-57" source="5luADB34g27wOjglePZU-99" target="5luADB34g27wOjglePZU-99" edge="1">
          <mxGeometry relative="1" as="geometry">
            <mxPoint x="374.11999999999995" y="54.758916666666586" as="sourcePoint" />
            <mxPoint x="374.11999999999995" y="180.30374999999995" as="targetPoint" />
            <Array as="points">
              <mxPoint x="402.32" y="52.087749999999986" />
              <mxPoint x="402.32" y="177.63258333333326" />
            </Array>
          </mxGeometry>
        </mxCell>
        <mxCell id="ix8nrv1j3cgbnX1aj0cv-2" value="" style="endArrow=none;html=1;rounded=0;fontSize=6;" parent="5luADB34g27wOjglePZU-57" edge="1">
          <mxGeometry width="50" height="50" relative="1" as="geometry">
            <mxPoint x="203.04" y="96.16199999999998" as="sourcePoint" />
            <mxPoint x="270.72" y="96.16199999999998" as="targetPoint" />
          </mxGeometry>
        </mxCell>
        <mxCell id="ix8nrv1j3cgbnX1aj0cv-3" value="" style="endArrow=none;html=1;rounded=0;exitX=0.001;exitY=0.153;exitDx=0;exitDy=0;exitPerimeter=0;dashed=1;fontSize=6;" parent="5luADB34g27wOjglePZU-57" edge="1">
          <mxGeometry width="50" height="50" relative="1" as="geometry">
            <mxPoint x="203.03999999999982" y="120.13037849999992" as="sourcePoint" />
            <mxPoint x="270.72" y="120.20249999999996" as="targetPoint" />
          </mxGeometry>
        </mxCell>
        <mxCell id="ix8nrv1j3cgbnX1aj0cv-4" value="" style="endArrow=none;html=1;rounded=0;exitX=0.001;exitY=0.153;exitDx=0;exitDy=0;exitPerimeter=0;fontSize=6;" parent="5luADB34g27wOjglePZU-57" edge="1">
          <mxGeometry width="50" height="50" relative="1" as="geometry">
            <mxPoint x="203.03999999999982" y="144.25902699999992" as="sourcePoint" />
            <mxPoint x="270.72" y="144.24299999999994" as="targetPoint" />
          </mxGeometry>
        </mxCell>
        <mxCell id="ix8nrv1j3cgbnX1aj0cv-5" style="edgeStyle=orthogonalEdgeStyle;rounded=0;orthogonalLoop=1;jettySize=auto;html=1;exitX=0.25;exitY=0;exitDx=0;exitDy=0;entryX=0.25;entryY=1;entryDx=0;entryDy=0;strokeColor=default;endArrow=none;fontSize=6;" parent="5luADB34g27wOjglePZU-57" edge="1">
          <mxGeometry relative="1" as="geometry">
            <Array as="points">
              <mxPoint x="229.17952" y="109.5178333333333" />
              <mxPoint x="229.17952" y="109.5178333333333" />
            </Array>
            <mxPoint x="229.36751999999998" y="52.087749999999986" as="sourcePoint" />
            <mxPoint x="229.36751999999998" y="177.63258333333326" as="targetPoint" />
          </mxGeometry>
        </mxCell>
        <mxCell id="ix8nrv1j3cgbnX1aj0cv-6" style="edgeStyle=orthogonalEdgeStyle;rounded=0;orthogonalLoop=1;jettySize=auto;html=1;exitX=0.25;exitY=0;exitDx=0;exitDy=0;entryX=0.25;entryY=1;entryDx=0;entryDy=0;strokeColor=default;endArrow=none;fontSize=6;" parent="5luADB34g27wOjglePZU-57" edge="1">
          <mxGeometry relative="1" as="geometry">
            <Array as="points">
              <mxPoint x="244.47143999999997" y="122.87366666666664" />
              <mxPoint x="244.47143999999997" y="122.87366666666664" />
            </Array>
            <mxPoint x="244.28343999999996" y="52.087749999999986" as="sourcePoint" />
            <mxPoint x="244.28343999999996" y="177.63258333333326" as="targetPoint" />
          </mxGeometry>
        </mxCell>
        <mxCell id="ix8nrv1j3cgbnX1aj0cv-7" style="edgeStyle=orthogonalEdgeStyle;rounded=0;orthogonalLoop=1;jettySize=auto;html=1;exitX=0.25;exitY=0;exitDx=0;exitDy=0;entryX=0.25;entryY=1;entryDx=0;entryDy=0;strokeColor=default;endArrow=none;fontSize=6;" parent="5luADB34g27wOjglePZU-57" edge="1">
          <mxGeometry relative="1" as="geometry">
            <Array as="points">
              <mxPoint x="259.63552" y="122.87366666666664" />
              <mxPoint x="259.63552" y="122.87366666666664" />
            </Array>
            <mxPoint x="259.44752" y="52.087749999999986" as="sourcePoint" />
            <mxPoint x="259.44752" y="177.63258333333326" as="targetPoint" />
          </mxGeometry>
        </mxCell>
        <mxCell id="ix8nrv1j3cgbnX1aj0cv-9" value="" style="endArrow=none;html=1;rounded=0;fontSize=6;" parent="5luADB34g27wOjglePZU-57" edge="1">
          <mxGeometry width="50" height="50" relative="1" as="geometry">
            <mxPoint x="203.11144000000002" y="72.12149999999997" as="sourcePoint" />
            <mxPoint x="270.72" y="72.12149999999997" as="targetPoint" />
          </mxGeometry>
        </mxCell>
        <mxCell id="ix8nrv1j3cgbnX1aj0cv-10" style="edgeStyle=orthogonalEdgeStyle;rounded=0;orthogonalLoop=1;jettySize=auto;html=1;exitX=0.25;exitY=0;exitDx=0;exitDy=0;entryX=0.25;entryY=1;entryDx=0;entryDy=0;strokeColor=default;endArrow=none;fontSize=6;" parent="5luADB34g27wOjglePZU-57" edge="1">
          <mxGeometry relative="1" as="geometry">
            <Array as="points">
              <mxPoint x="214.13951999999998" y="109.5178333333333" />
              <mxPoint x="214.13951999999998" y="109.5178333333333" />
            </Array>
            <mxPoint x="214.32752000000016" y="52.087749999999986" as="sourcePoint" />
            <mxPoint x="214.32752000000016" y="177.63258333333326" as="targetPoint" />
          </mxGeometry>
        </mxCell>
        <mxCell id="ix8nrv1j3cgbnX1aj0cv-17" value="&lt;b style=&quot;font-size: 6px;&quot;&gt;FFT0&lt;/b&gt;" style="text;html=1;align=center;verticalAlign=middle;resizable=0;points=[];autosize=1;strokeColor=none;fillColor=none;horizontal=0;fontSize=6;" parent="5luADB34g27wOjglePZU-57" vertex="1">
          <mxGeometry x="199" y="102" width="20" height="20" as="geometry" />
        </mxCell>
        <mxCell id="ix8nrv1j3cgbnX1aj0cv-12" value="&lt;b style=&quot;font-size: 6px;&quot;&gt;FFT1&lt;/b&gt;" style="text;html=1;align=center;verticalAlign=middle;resizable=0;points=[];autosize=1;strokeColor=none;fillColor=none;horizontal=0;fontSize=6;" parent="5luADB34g27wOjglePZU-57" vertex="1">
          <mxGeometry x="213" y="102" width="20" height="20" as="geometry" />
        </mxCell>
        <mxCell id="ix8nrv1j3cgbnX1aj0cv-15" value="&lt;b style=&quot;font-size: 6px;&quot;&gt;FFT2&lt;/b&gt;" style="text;html=1;align=center;verticalAlign=middle;resizable=0;points=[];autosize=1;strokeColor=none;fillColor=none;horizontal=0;fontSize=6;" parent="5luADB34g27wOjglePZU-57" vertex="1">
          <mxGeometry x="227" y="102" width="20" height="20" as="geometry" />
        </mxCell>
        <mxCell id="ix8nrv1j3cgbnX1aj0cv-16" value="&lt;b style=&quot;font-size: 6px;&quot;&gt;FFT3&lt;/b&gt;" style="text;html=1;align=center;verticalAlign=middle;resizable=0;points=[];autosize=1;strokeColor=none;fillColor=none;horizontal=0;fontSize=6;" parent="5luADB34g27wOjglePZU-57" vertex="1">
          <mxGeometry x="241" y="102" width="20" height="20" as="geometry" />
        </mxCell>
        <mxCell id="ix8nrv1j3cgbnX1aj0cv-19" value="&lt;b style=&quot;font-size: 6px;&quot;&gt;FFT N-1&lt;/b&gt;" style="text;html=1;align=center;verticalAlign=middle;resizable=0;points=[];autosize=1;strokeColor=none;fillColor=none;horizontal=0;fontSize=6;" parent="5luADB34g27wOjglePZU-57" vertex="1">
          <mxGeometry x="255" y="94" width="20" height="30" as="geometry" />
        </mxCell>
        <mxCell id="5luADB34g27wOjglePZU-112" style="edgeStyle=orthogonalEdgeStyle;rounded=0;orthogonalLoop=1;jettySize=auto;html=1;fontSize=6;" parent="5luADB34g27wOjglePZU-57" edge="1">
          <mxGeometry relative="1" as="geometry">
            <mxPoint x="440" y="150" as="targetPoint" />
            <Array as="points" />
            <mxPoint x="440" y="122" as="sourcePoint" />
          </mxGeometry>
        </mxCell>
        <mxCell id="hJ_LIC6B6bMGmAfKbL3N-8" style="edgeStyle=orthogonalEdgeStyle;rounded=0;orthogonalLoop=1;jettySize=auto;html=1;exitX=1;exitY=0.5;exitDx=0;exitDy=0;fontSize=6;" parent="5luADB34g27wOjglePZU-57" source="5luADB34g27wOjglePZU-69" target="5luADB34g27wOjglePZU-86" edge="1">
          <mxGeometry relative="1" as="geometry">
            <mxPoint x="194.24" y="70.10125000000005" as="sourcePoint" />
            <mxPoint x="213.03999999999996" y="69.99707449999994" as="targetPoint" />
            <Array as="points">
              <mxPoint x="200" y="84" />
              <mxPoint x="200" y="84" />
            </Array>
          </mxGeometry>
        </mxCell>
        <mxCell id="82p_zA2Nt_jTjOzAJqe6-48" style="edgeStyle=orthogonalEdgeStyle;rounded=0;orthogonalLoop=1;jettySize=auto;html=1;entryX=0;entryY=0.75;entryDx=0;entryDy=0;fontSize=6;endArrow=none;endFill=0;" parent="1" target="5luADB34g27wOjglePZU-64" edge="1">
          <mxGeometry relative="1" as="geometry">
            <Array as="points">
              <mxPoint x="-798" y="614" />
              <mxPoint x="-798" y="576" />
              <mxPoint x="-814" y="576" />
              <mxPoint x="-814" y="541" />
            </Array>
            <mxPoint x="-802.72" y="541.4030833333334" as="targetPoint" />
            <mxPoint x="-817.7600000000002" y="614.1" as="sourcePoint" />
          </mxGeometry>
        </mxCell>
        <mxCell id="eM_a-7aabTtCxpmqAUCp-2" value="" style="group" vertex="1" connectable="0" parent="1">
          <mxGeometry x="-840" y="70" width="430" height="180" as="geometry" />
        </mxCell>
        <mxCell id="mMi7ERoI5mFDvk5F9cLi-18" value="Sincronismo de símbolo" style="swimlane;fontSize=6;rounded=1;container=0;" parent="eM_a-7aabTtCxpmqAUCp-2" vertex="1">
          <mxGeometry width="430" height="180" as="geometry" />
        </mxCell>
        <mxCell id="mMi7ERoI5mFDvk5F9cLi-46" value="Sincronismo fino" style="swimlane;rounded=1;shadow=0;glass=0;fontSize=6;whiteSpace=wrap;container=0;" parent="mMi7ERoI5mFDvk5F9cLi-18" vertex="1">
          <mxGeometry x="257.21371428571416" y="49.57200000000004" width="165.79571428571427" height="113.292" as="geometry">
            <mxRectangle x="70" y="50" width="100" height="23" as="alternateBounds" />
          </mxGeometry>
        </mxCell>
        <mxCell id="mMi7ERoI5mFDvk5F9cLi-49" style="edgeStyle=orthogonalEdgeStyle;rounded=0;orthogonalLoop=1;jettySize=auto;html=1;entryX=0;entryY=0.5;entryDx=0;entryDy=0;fontSize=6;strokeWidth=1;" parent="mMi7ERoI5mFDvk5F9cLi-46" source="mMi7ERoI5mFDvk5F9cLi-47" target="mMi7ERoI5mFDvk5F9cLi-48" edge="1">
          <mxGeometry relative="1" as="geometry" />
        </mxCell>
        <mxCell id="mMi7ERoI5mFDvk5F9cLi-47" value="Estimación de canal" style="rounded=1;html=1;fontSize=6;whiteSpace=wrap;" parent="mMi7ERoI5mFDvk5F9cLi-46" vertex="1">
          <mxGeometry x="14.05485714285721" y="54.776249999999855" width="55.433142857142855" height="28.84859999999999" as="geometry" />
        </mxCell>
        <mxCell id="mMi7ERoI5mFDvk5F9cLi-48" value="Sincronismo fino" style="rounded=1;html=1;fontSize=6;whiteSpace=wrap;" parent="mMi7ERoI5mFDvk5F9cLi-46" vertex="1">
          <mxGeometry x="97.20457142857144" y="54.776249999999855" width="55.433142857142855" height="28.84859999999999" as="geometry" />
        </mxCell>
        <mxCell id="mMi7ERoI5mFDvk5F9cLi-50" style="edgeStyle=orthogonalEdgeStyle;rounded=0;orthogonalLoop=1;jettySize=auto;html=1;exitX=0;exitY=0.5;exitDx=0;exitDy=0;entryX=0;entryY=0.5;entryDx=0;entryDy=0;fontSize=6;strokeWidth=1;" parent="mMi7ERoI5mFDvk5F9cLi-46" source="mMi7ERoI5mFDvk5F9cLi-46" target="mMi7ERoI5mFDvk5F9cLi-47" edge="1">
          <mxGeometry relative="1" as="geometry">
            <Array as="points">
              <mxPoint y="68.4" />
              <mxPoint x="13.514285714285716" y="68.4" />
            </Array>
          </mxGeometry>
        </mxCell>
        <mxCell id="mMi7ERoI5mFDvk5F9cLi-51" style="edgeStyle=orthogonalEdgeStyle;rounded=0;orthogonalLoop=1;jettySize=auto;html=1;fontSize=6;strokeWidth=1;" parent="eM_a-7aabTtCxpmqAUCp-2" source="mMi7ERoI5mFDvk5F9cLi-45" edge="1">
          <mxGeometry relative="1" as="geometry">
            <mxPoint x="258" y="118.79054999999971" as="targetPoint" />
          </mxGeometry>
        </mxCell>
        <mxCell id="mMi7ERoI5mFDvk5F9cLi-43" style="edgeStyle=orthogonalEdgeStyle;rounded=0;orthogonalLoop=1;jettySize=auto;html=1;exitX=0;exitY=0.5;exitDx=0;exitDy=0;entryX=0;entryY=0.5;entryDx=0;entryDy=0;fontSize=6;strokeWidth=1;" parent="eM_a-7aabTtCxpmqAUCp-2" target="mMi7ERoI5mFDvk5F9cLi-38" edge="1">
          <mxGeometry relative="1" as="geometry">
            <Array as="points">
              <mxPoint x="6.142857142857143" y="118.8" />
            </Array>
            <mxPoint x="6.204285714285659" y="106.23599999999998" as="sourcePoint" />
          </mxGeometry>
        </mxCell>
        <mxCell id="mMi7ERoI5mFDvk5F9cLi-52" style="edgeStyle=orthogonalEdgeStyle;rounded=0;orthogonalLoop=1;jettySize=auto;html=1;exitX=1;exitY=0.5;exitDx=0;exitDy=0;entryX=0;entryY=0.5;entryDx=0;entryDy=0;fontSize=6;strokeWidth=1;" parent="eM_a-7aabTtCxpmqAUCp-2" target="mMi7ERoI5mFDvk5F9cLi-45" edge="1">
          <mxGeometry relative="1" as="geometry">
            <Array as="points">
              <mxPoint x="172" y="118.8" />
            </Array>
            <mxPoint x="172" y="106.23599999999998" as="sourcePoint" />
          </mxGeometry>
        </mxCell>
        <mxCell id="mMi7ERoI5mFDvk5F9cLi-38" value="Estimación &quot;gruesa&quot;" style="rounded=1;html=1;fontSize=6;whiteSpace=wrap;" parent="eM_a-7aabTtCxpmqAUCp-2" vertex="1">
          <mxGeometry x="24.571428571428434" y="104.36624999999988" width="55.433142857142855" height="28.84859999999999" as="geometry" />
        </mxCell>
        <mxCell id="mMi7ERoI5mFDvk5F9cLi-53" style="edgeStyle=orthogonalEdgeStyle;rounded=0;orthogonalLoop=1;jettySize=auto;html=1;fontSize=6;strokeWidth=1;" parent="eM_a-7aabTtCxpmqAUCp-2" source="mMi7ERoI5mFDvk5F9cLi-39" edge="1">
          <mxGeometry relative="1" as="geometry">
            <mxPoint x="172" y="118.79054999999971" as="targetPoint" />
          </mxGeometry>
        </mxCell>
        <mxCell id="0ZpZoxerwZfCrGspUUli-1" value="" style="edgeStyle=orthogonalEdgeStyle;rounded=0;orthogonalLoop=1;jettySize=auto;html=1;endArrow=classicThin;endFill=0;strokeWidth=0;" parent="eM_a-7aabTtCxpmqAUCp-2" source="mMi7ERoI5mFDvk5F9cLi-39" target="mMi7ERoI5mFDvk5F9cLi-38" edge="1">
          <mxGeometry relative="1" as="geometry" />
        </mxCell>
        <mxCell id="mMi7ERoI5mFDvk5F9cLi-39" value="Corrección frecuencia" style="rounded=1;html=1;fontSize=6;whiteSpace=wrap;" parent="eM_a-7aabTtCxpmqAUCp-2" vertex="1">
          <mxGeometry x="98.28571428571415" y="104.36624999999988" width="55.433142857142855" height="28.84859999999999" as="geometry" />
        </mxCell>
        <mxCell id="mMi7ERoI5mFDvk5F9cLi-44" style="edgeStyle=orthogonalEdgeStyle;rounded=0;orthogonalLoop=1;jettySize=auto;html=1;exitX=1;exitY=0.5;exitDx=0;exitDy=0;entryX=0;entryY=0.5;entryDx=0;entryDy=0;fontSize=6;strokeWidth=0;endArrow=classicThin;endFill=0;" parent="eM_a-7aabTtCxpmqAUCp-2" source="mMi7ERoI5mFDvk5F9cLi-38" target="mMi7ERoI5mFDvk5F9cLi-39" edge="1">
          <mxGeometry relative="1" as="geometry" />
        </mxCell>
        <mxCell id="mMi7ERoI5mFDvk5F9cLi-45" value="Detección fase pilotos" style="rounded=1;html=1;fontSize=6;whiteSpace=wrap;" parent="eM_a-7aabTtCxpmqAUCp-2" vertex="1">
          <mxGeometry x="184.28571428571416" y="104.36624999999988" width="55.433142857142855" height="28.84859999999999" as="geometry" />
        </mxCell>
      </root>
    </mxGraphModel>
  </diagram>
</mxfile>
